<svg width="26" height="27" viewBox="0 0 26 27" fill="none" xmlns="http://www.w3.org/2000/svg">
<path d="M25.5304 23.6189C25.6173 19.1725 25.7062 14.7261 25.7962 10.2797C25.8141 9.39488 25.362 8.91096 24.4837 8.90792C21.0476 8.89795 17.611 8.89562 14.1744 8.88514C11.9236 8.87842 9.67347 8.86204 7.42275 8.85023C7.23721 8.89101 7.05302 8.88855 6.82019 8.84985C7.05024 8.71962 7.2607 8.70535 7.4731 8.69617C10.6698 8.06803 13.8659 7.43937 17.0631 6.81276C19.4929 6.33702 21.9249 5.87299 24.3529 5.38707C25.1188 5.23364 25.4896 4.64935 25.3563 3.89446C25.2688 3.40121 25.1818 2.90745 25.0877 2.41469C24.9552 1.72289 24.4027 1.3283 23.7064 1.43558C23.3623 1.48872 23.0223 1.56986 22.68 1.63623C15.7776 2.97835 8.87519 4.32047 1.97328 5.6631C1.01234 5.84965 0.653289 6.38054 0.827785 7.34161C0.940252 7.96314 1.11538 8.58126 1.14275 9.20819C1.18506 10.1628 1.12087 11.1239 1.10662 12.0819C1.05028 15.8797 0.99648 19.6779 0.871972 23.4745C0.82982 24.7642 1.76185 25.8675 3.23781 25.8627C9.88824 25.844 16.5382 25.8756 23.188 25.8915C24.5874 25.8968 25.5036 25.0105 25.5304 23.6189ZM24.7077 9.86146C24.8329 9.91263 24.872 10.0221 24.8699 10.1519C24.8609 10.6647 24.8548 11.1776 24.8422 11.69C24.8373 11.8884 24.7327 12.0057 24.5281 12.0062C23.7784 12.0081 23.0294 12.0053 22.2497 12.0046C22.9891 11.2812 23.6829 10.6025 24.3767 9.92379C24.4753 9.82735 24.5895 9.81336 24.7077 9.86146ZM20.0104 9.93763C20.0674 9.88281 20.1555 9.83162 20.2298 9.82874C20.7279 9.80954 21.2258 9.80356 21.7242 9.79403C21.7347 9.82763 21.7448 9.86073 21.7553 9.89434C21.5887 10.0573 21.4252 10.2223 21.2556 10.3822C20.7557 10.8542 20.2554 11.3258 19.7525 11.7947C19.6742 11.8673 19.5825 11.976 19.4954 11.9794C18.9683 11.997 18.4408 11.9881 17.911 11.9884C18.6297 11.2833 19.3173 10.6077 20.0104 9.93763ZM15.7289 9.88348C15.7683 9.8449 15.8331 9.8135 15.8865 9.8121C16.3958 9.79598 16.9049 9.78698 17.4899 9.77357C16.9538 10.2979 16.4608 10.7064 16.0605 11.1899C15.5069 11.8582 14.8537 12.1279 14.0157 11.9886C13.8823 11.9664 13.7341 12.0236 13.5927 12.0441C13.5984 12.0136 13.6046 11.9836 13.6108 11.9526C14.316 11.2627 15.0212 10.5718 15.7289 9.88348ZM12.4709 9.79709C12.6622 9.82552 12.8673 9.7746 13.1196 9.75636C12.3392 10.5198 11.6433 11.2026 10.9434 11.8813C10.8957 11.928 10.8195 11.9716 10.7564 11.9734C10.2477 11.988 9.73814 11.9925 9.16951 12.0008C9.72837 11.4541 10.2569 11.0009 10.7068 10.4799C11.1943 9.91525 11.7519 9.69011 12.4709 9.79709ZM6.9875 9.8918C7.03524 9.8451 7.11239 9.80355 7.17655 9.80167C7.68417 9.79012 8.19211 9.78824 8.76781 9.78295C8.20895 10.3297 7.68692 10.7895 7.22691 11.3043C6.75651 11.8304 6.22641 12.0795 5.52721 11.9731C5.32323 11.9421 5.10378 11.9991 4.80511 12.0218C5.59537 11.2497 6.28918 10.569 6.9875 9.8918ZM23.8761 2.35236C24.0656 2.31871 24.1525 2.45731 24.1827 2.62631C24.2718 3.11804 24.37 3.60877 24.4417 4.10351C24.487 4.41451 24.2286 4.6154 23.9737 4.45555C23.1543 3.94179 22.3527 3.40058 21.4543 2.81133C22.3309 2.6434 23.1024 2.4905 23.8761 2.35236ZM18.8221 3.33545C18.8747 3.3259 18.9428 3.35302 18.9901 3.38366C19.7996 3.91216 20.6064 4.44422 21.4751 5.0156C20.9096 5.12573 20.4181 5.22127 19.9271 5.31834C19.8403 5.33544 19.7646 5.32763 19.6893 5.27759C18.8914 4.75166 18.0915 4.22776 17.1997 3.64208C17.8061 3.52595 18.3134 3.42688 18.8221 3.33545ZM14.4579 4.17358C14.557 4.15346 14.6501 4.15418 14.7335 4.20933C15.5334 4.73526 16.3322 5.26221 17.2119 5.84176C16.6249 5.95692 16.1268 6.05703 15.6262 6.15052C15.572 6.16057 15.5011 6.14615 15.4553 6.11705C14.6428 5.58854 13.8324 5.05597 12.9416 4.47131C13.5194 4.35815 13.9888 4.26816 14.4579 4.17358ZM10.2528 4.99377C10.3172 4.98171 10.4024 4.99615 10.4562 5.03138C11.2672 5.55836 12.0751 6.09144 12.9613 6.67456C12.3668 6.78716 11.8631 6.88268 11.3599 6.97768C11.2716 6.99427 11.1995 6.959 11.1276 6.91151C10.367 6.40805 9.60536 5.90663 8.84475 5.40318C8.81812 5.38531 8.80302 5.35118 8.75688 5.29052C9.27191 5.18689 9.76146 5.08524 10.2528 4.99377ZM4.41717 9.90622C3.83189 10.373 3.24614 10.8382 2.66584 11.3111C2.53344 11.4187 2.40435 11.4871 2.24095 11.4114C2.07705 11.3352 2.04632 11.1896 2.0501 11.0232C2.07406 10.0896 2.09394 9.15594 2.11585 8.2223C2.06986 8.05072 2.08238 7.87978 2.12695 7.70943C2.12502 7.62649 2.11954 7.54303 2.1222 7.45959C2.12665 7.31051 2.15532 7.17269 2.31597 7.10335C2.4828 7.03097 2.61862 7.08573 2.7448 7.19084C3.31911 7.66995 3.89969 8.14094 4.4662 8.62868C5.21235 9.27203 5.20667 9.27659 4.41717 9.90622ZM6.82246 7.6989C6.05974 7.19951 5.29803 6.70012 4.51772 6.18899C4.55411 6.0466 4.68552 6.0927 4.76655 6.06134C5.68436 5.71339 6.48344 5.86483 7.22237 6.51325C7.6346 6.87546 8.13949 7.13206 8.69669 7.49817C8.10554 7.61638 7.62684 7.71042 7.14855 7.80905C7.01262 7.83723 6.91993 7.76324 6.82246 7.6989ZM23.2692 24.9677C16.6067 24.9533 9.94423 24.9379 3.28114 24.9271C2.86231 24.9267 2.46394 24.8952 2.20437 24.6112C1.88472 24.3031 1.79764 23.9691 1.80556 23.5921C1.85833 21.0893 1.9065 18.5871 1.95621 16.0843C1.97457 15.1501 2.01178 14.2155 2.00264 13.2823C1.99916 12.9414 2.11152 12.8694 2.42498 12.8711C5.80488 12.8891 9.185 12.8959 12.5646 12.9042C16.4958 12.9138 20.4275 12.9228 24.3588 12.9324C24.8819 12.9336 24.8149 12.8974 24.805 13.4011C24.7402 16.8268 24.6719 20.2521 24.6035 23.6783C24.5884 24.4736 24.0733 24.9695 23.2692 24.9677Z" fill="#EEEAEA"/>
<path d="M7.33029 8.96336C7.34608 8.91169 7.36187 8.86002 7.37818 8.80886C7.28505 8.83741 7.20159 8.86936 7.33029 8.96336Z" fill="#EEEAEA"/>
<path d="M2.1305 8.33284C2.12846 8.33287 2.12694 8.33341 2.12439 8.33396C2.07096 8.35064 2.03329 8.38487 2.01241 8.43764C2.05668 8.43638 2.09993 8.43514 2.1442 8.43387C2.13963 8.39986 2.13507 8.36685 2.1305 8.33284Z" fill="#EEEAEA"/>
<path d="M2.12409 8.02693C2.12664 8.02739 2.12867 8.02736 2.13071 8.02732C2.13632 7.99211 2.14397 7.95687 2.15517 7.92208C2.10836 7.92287 2.06155 7.92265 2.01474 7.92344C2.03456 7.97552 2.07016 8.01054 2.12409 8.02693Z" fill="#EEEAEA"/>
<path d="M16.5686 18.0343C14.7901 17.0111 12.9964 16.0136 11.2031 15.0166C10.8053 14.7953 10.3769 14.8891 10.0521 15.2152C9.84444 15.4081 9.75276 15.6488 9.75215 15.9251C9.75088 17.9725 9.74199 20.0194 9.7565 22.0669C9.76181 22.8358 10.5483 23.2845 11.2145 22.8951C13.0029 21.85 14.7836 20.7902 16.5568 19.7179C17.2291 19.3101 17.2411 18.4208 16.5686 18.0343Z" fill="#EEEAEA"/>
<path d="M2.81211 10.4397C2.66004 10.2647 2.4616 10.2579 2.27887 10.4254C2.09716 10.5918 2.09297 10.9267 2.28676 11.1224C2.44342 11.2653 2.6439 11.2599 2.79864 11.0883C2.97833 10.8903 2.98809 10.6423 2.81211 10.4397Z" fill="#EEEAEA"/>
<path d="M2.37135 8.00268C2.52299 7.97873 2.6456 8.02906 2.63434 8.2033C2.62411 8.35817 2.50299 8.39484 2.3702 8.36503C2.32645 8.3556 2.28371 8.34105 2.23996 8.33366C2.21603 8.36714 2.1865 8.40021 2.14528 8.43399C2.31871 8.64122 2.52424 8.7334 2.75125 8.5209C2.95638 8.32861 2.96207 8.0817 2.79169 7.88155C2.58875 7.64327 2.35773 7.70012 2.15513 7.9234C2.19176 7.9584 2.21973 7.99304 2.2421 8.02828C2.28536 8.02093 2.32759 8.00953 2.37135 8.00268Z" fill="#EEEAEA"/>
<path d="M2.23937 8.33409C2.31268 8.23208 2.30814 8.12987 2.24152 8.0277C2.20488 8.03341 2.16824 8.03505 2.13009 8.02806C2.11377 8.13012 2.11831 8.23131 2.13099 8.33339C2.16814 8.32512 2.20426 8.32705 2.23937 8.33409Z" fill="#EEEAEA"/>
</svg>
