<svg width="31" height="33" viewBox="0 0 31 33" fill="none" xmlns="http://www.w3.org/2000/svg">
<path d="M29.6341 14.7382C26.5165 11.5667 23.4002 8.39378 20.2847 5.22011C19.6648 4.58857 19.0027 4.57333 18.3863 5.19906C15.9764 7.64827 13.5714 10.1033 11.1608 12.5525C9.58197 14.1568 7.99674 15.7537 6.41437 17.3544C6.31378 17.5155 6.18323 17.6455 5.99274 17.7848C6.06052 17.5293 6.19749 17.3689 6.33946 17.2106C8.12587 14.4863 9.91157 11.762 11.6994 9.03838C13.0585 6.96882 14.4275 4.9058 15.778 2.83043C16.2039 2.17566 16.0456 1.50202 15.4128 1.06938C14.999 0.787 14.5852 0.503896 14.1671 0.2266C13.58 -0.162486 12.9115 -0.0434374 12.5013 0.529303C12.2987 0.812407 12.1189 1.11221 11.927 1.4033C8.05952 7.27588 4.19206 13.1485 0.325318 19.0211C-0.213316 19.8384 -0.0848997 20.4663 0.724121 21.0137C1.24706 21.3679 1.81138 21.675 2.27867 22.0938C2.99066 22.7312 3.63274 23.4491 4.30764 24.1293C6.98297 26.8253 9.66044 29.5198 12.2873 32.2638C13.1798 33.1958 14.6202 33.3011 15.6489 32.2427C20.2861 27.4757 24.9591 22.7442 29.6206 18.0019C30.6029 17.0052 30.6101 15.7305 29.6341 14.7382ZM19.2246 5.70575C19.3487 5.65203 19.4543 5.70066 19.5456 5.79285C19.9059 6.15799 20.2683 6.52094 20.6257 6.88825C20.7641 7.03053 20.7748 7.18732 20.6322 7.33395C20.1092 7.87113 19.5834 8.40467 19.0377 8.96144C19.0377 7.92702 19.0377 6.95648 19.0377 5.98595C19.0377 5.84802 19.1076 5.75656 19.2246 5.70575ZM15.9942 9.11678C15.9949 9.03766 16.0199 8.93894 16.0698 8.88377C16.4044 8.51428 16.7483 8.15423 17.09 7.79128C17.1214 7.80725 17.1521 7.82322 17.1835 7.83919C17.1835 8.0722 17.187 8.30449 17.1828 8.53751C17.1706 9.22494 17.1578 9.91238 17.1414 10.5998C17.1385 10.7065 17.1521 10.8481 17.0936 10.9127C16.7376 11.3018 16.3623 11.6727 15.9921 12.0516C15.9906 11.0448 15.9885 10.0808 15.9942 9.11678ZM12.9614 12.1395C12.9614 12.0843 12.9843 12.0161 13.0207 11.9769C13.3652 11.6016 13.7148 11.2313 14.1143 10.8038C14.1143 11.5537 14.0615 12.1917 14.1272 12.816C14.2178 13.6791 13.9538 14.3346 13.2682 14.8362C13.1591 14.9161 13.0963 15.062 13.0121 15.1774C12.9943 15.152 12.9771 15.1266 12.9593 15.1004C12.9593 14.1139 12.9586 13.1267 12.9614 12.1395ZM10.6214 14.4079C10.7755 14.291 10.8825 14.1088 11.0459 13.9158C11.0459 15.0075 11.0473 15.9824 11.0431 16.9573C11.0431 17.0241 11.0209 17.109 10.9781 17.1555C10.6328 17.5293 10.2797 17.8966 9.88803 18.3089C9.88803 17.5271 9.93368 16.8324 9.8759 16.1465C9.81312 15.4031 10.0421 14.8471 10.6214 14.4079ZM6.85456 18.3939C6.85456 18.3271 6.87881 18.2429 6.92233 18.1957C7.26905 17.8248 7.62291 17.4604 8.02171 17.0451C8.02171 17.8269 7.98533 18.5216 8.0317 19.2105C8.07879 19.9146 7.88616 20.4678 7.32113 20.8932C7.15633 21.0173 7.04361 21.214 6.85099 21.4434C6.8517 20.3386 6.85027 19.3666 6.85456 18.3939ZM13.2754 1.04905C13.3838 0.890079 13.5436 0.924922 13.6856 1.02147C14.0994 1.30167 14.5188 1.57461 14.9226 1.86933C15.1766 2.05443 15.1395 2.37964 14.847 2.45005C13.9067 2.67654 12.9593 2.87108 11.9099 3.10119C12.4028 2.35714 12.833 1.69874 13.2754 1.04905ZM10.4438 5.34933C10.4737 5.30505 10.5408 5.27528 10.5957 5.26294C11.5396 5.05388 12.4842 4.84918 13.5001 4.62777C13.1833 5.10905 12.9079 5.52717 12.634 5.94602C12.5855 6.02006 12.527 6.0687 12.4385 6.08757C11.5046 6.2901 10.5708 6.49553 9.52846 6.72347C9.86948 6.2088 10.1534 5.77688 10.4438 5.34933ZM7.99104 9.05508C8.04597 8.97015 8.1116 8.90409 8.20934 8.88304C9.14464 8.67906 10.0799 8.47653 11.1094 8.25295C10.7812 8.7531 10.5044 9.17921 10.2212 9.60241C10.1905 9.64815 10.1306 9.6888 10.0778 9.70114C9.1318 9.91238 8.18437 10.1193 7.14349 10.3472C7.46667 9.85503 7.73064 9.45651 7.99104 9.05508ZM5.63674 12.6345C5.67313 12.5801 5.74304 12.5293 5.80583 12.5155C6.74968 12.3042 7.69568 12.0995 8.73228 11.8738C8.39697 12.3776 8.11303 12.8044 7.82909 13.2305C7.77915 13.3053 7.70353 13.3321 7.61934 13.3503C6.72757 13.5419 5.8365 13.7357 4.94473 13.9274C4.91333 13.9339 4.87838 13.9208 4.80275 13.9114C5.08884 13.4708 5.35851 13.0497 5.63674 12.6345ZM5.06743 20.2413C4.99181 20.9861 4.91476 21.7301 4.84699 22.4756C4.83129 22.6455 4.78991 22.7856 4.62154 22.8495C4.45246 22.9134 4.3269 22.8335 4.21061 22.7145C3.55997 22.0445 2.90648 21.3773 2.25441 20.7088C2.0996 20.6217 1.98616 20.4932 1.89556 20.3422C1.83492 20.2856 1.77142 20.2311 1.71364 20.1709C1.61019 20.0635 1.53171 19.9466 1.5945 19.7833C1.65942 19.6134 1.79354 19.5546 1.95691 19.5379C2.70101 19.4624 3.44369 19.3768 4.1885 19.3129C5.17017 19.2294 5.16945 19.2366 5.06743 20.2413ZM5.17159 16.9784C4.28124 17.1743 3.39161 17.3696 2.48057 17.57C2.40423 17.4444 2.52908 17.3827 2.56332 17.3028C2.95642 16.4034 3.62347 15.9381 4.60371 15.8634C5.1509 15.822 5.6874 15.6405 6.33875 15.4982C6.00986 16.0035 5.74233 16.4114 5.47836 16.8223C5.40345 16.9392 5.28574 16.9537 5.17159 16.9784ZM29.017 17.2978C24.3477 22.0503 19.6776 26.8021 15.0104 31.5575C14.7172 31.8565 14.4161 32.1193 14.0316 32.1063C13.5878 32.1193 13.2882 31.948 13.0242 31.6787C11.2721 29.8908 9.51705 28.1065 7.76274 26.3208C7.10782 25.6544 6.46574 24.9742 5.79227 24.3282C5.54614 24.0922 5.57325 23.9616 5.7937 23.7387C8.1701 21.3352 10.5387 18.9238 12.9079 16.5138C15.6639 13.7103 18.4198 10.9061 21.1758 8.10269C21.5425 7.72957 21.4697 7.75208 21.8229 8.1114C24.2264 10.5534 26.627 12.9975 29.0284 15.4423C29.5863 16.0093 29.5806 16.7243 29.017 17.2978Z" fill="white"/>
<path d="M6.41431 17.3561C6.38934 17.3082 6.36437 17.2603 6.34012 17.2124C6.29374 17.2981 6.25665 17.3794 6.41431 17.3561Z" fill="white"/>
<path d="M2.26514 20.5527C2.26372 20.5542 2.263 20.5556 2.26158 20.5578C2.23518 20.6072 2.23233 20.658 2.25444 20.7103C2.28512 20.6783 2.31508 20.6471 2.34576 20.6152C2.31865 20.5941 2.29225 20.5738 2.26514 20.5527Z" fill="white"/>
<path d="M2.04604 20.3392C2.04818 20.3378 2.04961 20.3363 2.05103 20.3349C2.03034 20.3058 2.01108 20.2753 1.99467 20.2427C1.96186 20.2761 1.92833 20.3087 1.89551 20.3421C1.94616 20.3654 1.9961 20.3654 2.04604 20.3392Z" fill="white"/>
<path d="M19.3616 17.3452C17.3761 17.8627 15.3978 18.4094 13.4202 18.956C12.9814 19.0772 12.7417 19.4445 12.7389 19.9047C12.726 20.1878 12.8295 20.4237 13.0228 20.6212C14.4575 22.0817 15.8865 23.5473 17.3326 24.997C17.8755 25.5414 18.7509 25.3098 18.9528 24.5651C19.495 22.5659 20.0215 20.5617 20.5337 18.5538C20.727 17.7916 20.1121 17.1492 19.3616 17.3452Z" fill="white"/>
<path d="M4.2284 21.5768C3.99725 21.5587 3.851 21.693 3.83816 21.9405C3.82531 22.1866 4.05718 22.4283 4.33256 22.4319C4.54444 22.424 4.68356 22.2795 4.67357 22.0487C4.66287 21.7815 4.49593 21.5979 4.2284 21.5768Z" fill="white"/>
<path d="M2.20518 20.1483C2.29649 20.0249 2.4192 19.9748 2.53335 20.1069C2.63466 20.2245 2.57401 20.3355 2.45844 20.4074C2.42063 20.4314 2.37996 20.451 2.34358 20.4764C2.35 20.517 2.35214 20.5613 2.34643 20.6143C2.61539 20.6404 2.82657 20.562 2.83941 20.2513C2.85082 19.9704 2.68174 19.7904 2.41992 19.7672C2.10815 19.7396 1.9833 19.9421 1.99543 20.2434C2.04608 20.2426 2.09032 20.2477 2.13098 20.2571C2.15666 20.2216 2.17878 20.1838 2.20518 20.1483Z" fill="white"/>
<path d="M2.34353 20.4773C2.32427 20.3531 2.24936 20.2835 2.13022 20.2573C2.1081 20.2871 2.08313 20.3139 2.05103 20.3357C2.11095 20.4199 2.18515 20.4889 2.26577 20.5528C2.28646 20.5208 2.31357 20.4969 2.34353 20.4773Z" fill="white"/>
</svg>
