<svg width="22" height="24" viewBox="0 0 22 24" fill="none" xmlns="http://www.w3.org/2000/svg">
<path d="M21.2374 10.5622C19.0031 8.28933 16.7699 6.01543 14.5371 3.74101C14.0928 3.28842 13.6184 3.27749 13.1766 3.72593C11.4495 5.48116 9.726 7.24056 7.9984 8.99579C6.86695 10.1455 5.73089 11.29 4.59688 12.4371C4.52479 12.5526 4.43123 12.6457 4.29472 12.7456C4.34329 12.5624 4.44145 12.4475 4.5432 12.3341C5.82343 10.3817 7.10316 8.42927 8.38442 6.47739C9.3584 4.99423 10.3395 3.51576 11.3074 2.02844C11.6126 1.55919 11.4991 1.07643 11.0456 0.766373C10.7491 0.564006 10.4525 0.361119 10.1529 0.162394C9.73214 -0.116446 9.25307 -0.0311296 8.95909 0.379327C8.81389 0.582214 8.68505 0.797067 8.54751 1.00568C5.77589 5.21429 3.00426 9.42289 0.23314 13.6315C-0.152873 14.2173 -0.0608437 14.6673 0.518944 15.0595C0.893709 15.3134 1.29813 15.5334 1.63301 15.8336C2.14327 16.2904 2.60342 16.8049 3.08708 17.2923C5.00437 19.2244 6.92319 21.1555 8.80571 23.1219C9.44531 23.7899 10.4776 23.8653 11.2148 23.1069C14.5381 19.6905 17.887 16.2997 21.2277 12.9011C21.9317 12.1868 21.9368 11.2733 21.2374 10.5622ZM13.7774 4.08904C13.8663 4.05055 13.942 4.0854 14.0074 4.15147C14.2656 4.41314 14.5254 4.67325 14.7815 4.93649C14.8807 5.03845 14.8884 5.15082 14.7861 5.2559C14.4113 5.64087 14.0345 6.02323 13.6434 6.42225C13.6434 5.68093 13.6434 4.98539 13.6434 4.28985C13.6434 4.19101 13.6935 4.12546 13.7774 4.08904ZM11.4623 6.53357C11.4628 6.47687 11.4807 6.40612 11.5165 6.36658C11.7563 6.10179 12.0027 5.84376 12.2476 5.58364C12.2701 5.59509 12.2921 5.60653 12.3146 5.61798C12.3146 5.78497 12.3172 5.95144 12.3141 6.11843C12.3054 6.61109 12.2962 7.10374 12.2844 7.59639C12.2824 7.67286 12.2921 7.77431 12.2502 7.82061C11.995 8.09945 11.7261 8.36528 11.4608 8.63684C11.4597 7.91529 11.4582 7.22443 11.4623 6.53357ZM9.28886 8.69978C9.28886 8.66025 9.30523 8.61135 9.3313 8.58325C9.57825 8.3143 9.82877 8.04898 10.1151 7.74257C10.1151 8.27996 10.0773 8.73724 10.1243 9.18463C10.1892 9.80318 10 10.2729 9.50871 10.6324C9.43049 10.6896 9.3855 10.7942 9.32517 10.8769C9.31238 10.8587 9.30011 10.8405 9.28733 10.8218C9.28733 10.1148 9.28682 9.40729 9.28886 8.69978ZM7.61188 10.3255C7.72231 10.2417 7.79901 10.1112 7.91609 9.97277C7.91609 10.7552 7.91711 11.4538 7.91404 12.1525C7.91404 12.2004 7.89819 12.2612 7.86752 12.2945C7.62006 12.5624 7.36698 12.8257 7.08629 13.1212C7.08629 12.5609 7.11901 12.063 7.07759 11.5714C7.0326 11.0387 7.19672 10.6402 7.61188 10.3255ZM4.91234 13.182C4.91234 13.1342 4.92972 13.0738 4.96091 13.04C5.20939 12.7742 5.46298 12.513 5.74879 12.2155C5.74879 12.7757 5.72271 13.2736 5.75595 13.7673C5.78969 14.2719 5.65165 14.6683 5.24671 14.9732C5.12861 15.0621 5.04783 15.2031 4.90978 15.3675C4.91029 14.5757 4.90927 13.8791 4.91234 13.182ZM9.51383 0.751807C9.59154 0.637878 9.70607 0.662849 9.80781 0.732039C10.1044 0.932845 10.405 1.12845 10.6944 1.33966C10.8764 1.47232 10.8498 1.70538 10.6402 1.75584C9.96631 1.91815 9.28733 2.05757 8.53524 2.22248C8.88853 1.68925 9.19683 1.21741 9.51383 0.751807ZM7.48457 3.83361C7.50604 3.80188 7.5541 3.78055 7.59347 3.77171C8.26989 3.62188 8.94682 3.47518 9.67488 3.31651C9.44787 3.66142 9.25052 3.96107 9.05419 4.26124C9.01942 4.3143 8.9775 4.34915 8.9141 4.36268C8.24484 4.50782 7.57558 4.65505 6.8286 4.8184C7.07299 4.44956 7.27648 4.14002 7.48457 3.83361ZM5.7268 6.48935C5.76617 6.42849 5.81321 6.38115 5.88325 6.36606C6.55354 6.21988 7.22382 6.07474 7.96159 5.91451C7.7264 6.27294 7.52803 6.57831 7.32505 6.8816C7.30307 6.91438 7.26012 6.94351 7.22229 6.95235C6.54433 7.10374 5.86536 7.252 5.11941 7.41535C5.35102 7.06264 5.54019 6.77704 5.7268 6.48935ZM4.03959 9.05458C4.06567 9.01556 4.11577 8.97914 4.16076 8.96926C4.83718 8.81787 5.51513 8.67117 6.25802 8.50938C6.01772 8.87042 5.81423 9.17631 5.61074 9.48168C5.57495 9.53526 5.52076 9.55451 5.46043 9.56752C4.82133 9.70486 4.18275 9.84376 3.54365 9.9811C3.52116 9.98578 3.4961 9.97641 3.44191 9.96965C3.64693 9.65387 3.84019 9.35214 4.03959 9.05458ZM3.63159 14.506C3.5774 15.0397 3.52218 15.573 3.47361 16.1072C3.46236 16.229 3.43271 16.3294 3.31205 16.3752C3.19087 16.4209 3.10089 16.3637 3.01755 16.2784C2.55127 15.7982 2.08294 15.3201 1.61563 14.841C1.50468 14.7786 1.42339 14.6865 1.35846 14.5783C1.315 14.5377 1.2695 14.4987 1.22808 14.4555C1.15395 14.3785 1.09771 14.2948 1.1427 14.1777C1.18923 14.056 1.28535 14.0139 1.40243 14.0019C1.93569 13.9478 2.46793 13.8864 3.0017 13.8406C3.70522 13.7808 3.70471 13.786 3.63159 14.506ZM3.70624 12.1676C3.06817 12.3081 2.43061 12.448 1.77771 12.5916C1.723 12.5016 1.81247 12.4574 1.83701 12.4001C2.11873 11.7556 2.59677 11.4221 3.29926 11.3685C3.69141 11.3389 4.07589 11.2088 4.54269 11.1069C4.30699 11.4689 4.11526 11.7613 3.92609 12.0557C3.8724 12.1395 3.78804 12.1499 3.70624 12.1676ZM20.7951 12.3965C17.4488 15.8024 14.102 19.2078 10.7572 22.6158C10.5471 22.8301 10.3314 23.0184 10.0558 23.0091C9.73776 23.0184 9.52303 22.8956 9.33386 22.7026C8.07816 21.4213 6.82042 20.1426 5.56319 18.8629C5.09384 18.3853 4.63369 17.8979 4.15105 17.4349C3.97466 17.2658 3.99409 17.1721 4.15207 17.0124C5.85513 15.29 7.55257 13.5618 9.25052 11.8347C11.2256 9.82555 13.2006 7.81592 15.1757 5.80682C15.4385 5.53943 15.3863 5.55555 15.6394 5.81306C17.3619 7.5631 19.0824 9.31469 20.8033 11.0668C21.2031 11.4731 21.199 11.9855 20.7951 12.3965Z" fill="#797575"/>
<path d="M4.59683 12.4382C4.57894 12.4039 4.56104 12.3695 4.54366 12.3352C4.51043 12.3966 4.48384 12.4549 4.59683 12.4382Z" fill="#797575"/>
<path d="M1.62326 14.7292C1.62224 14.7303 1.62173 14.7313 1.6207 14.7329C1.60179 14.7683 1.59974 14.8047 1.61559 14.8421C1.63758 14.8192 1.65905 14.7969 1.68104 14.774C1.66161 14.7589 1.64269 14.7443 1.62326 14.7292Z" fill="#797575"/>
<path d="M1.4663 14.5763C1.46783 14.5752 1.46886 14.5742 1.46988 14.5731C1.45505 14.5523 1.44125 14.5305 1.42949 14.5071C1.40597 14.531 1.38194 14.5544 1.35842 14.5784C1.39472 14.595 1.43051 14.595 1.4663 14.5763Z" fill="#797575"/>
<path d="M13.8755 12.4308C12.4526 12.8017 11.0348 13.1934 9.61757 13.5852C9.30314 13.672 9.13135 13.9353 9.12931 14.2651C9.1201 14.468 9.19424 14.6371 9.33279 14.7786C10.361 15.8253 11.3851 16.8756 12.4214 17.9145C12.8105 18.3046 13.4378 18.1387 13.5825 17.6049C13.9711 16.1722 14.3484 14.7359 14.7155 13.297C14.8541 12.7507 14.4133 12.2903 13.8755 12.4308Z" fill="#797575"/>
<path d="M3.03029 15.4632C2.86464 15.4502 2.75983 15.5464 2.75062 15.7238C2.74142 15.9002 2.90759 16.0734 3.10494 16.076C3.25679 16.0703 3.35649 15.9668 3.34933 15.8013C3.34166 15.6099 3.22202 15.4783 3.03029 15.4632Z" fill="#797575"/>
<path d="M1.58032 14.4395C1.64576 14.351 1.7337 14.3151 1.8155 14.4098C1.88811 14.4941 1.84465 14.5737 1.76182 14.6252C1.73472 14.6424 1.70558 14.6564 1.67951 14.6746C1.68411 14.7037 1.68564 14.7355 1.68155 14.7734C1.8743 14.7922 2.02564 14.736 2.03484 14.5133C2.04302 14.312 1.92185 14.183 1.73421 14.1663C1.51078 14.1466 1.42131 14.2917 1.43 14.5076C1.4663 14.5071 1.498 14.5107 1.52714 14.5175C1.54555 14.492 1.5614 14.465 1.58032 14.4395Z" fill="#797575"/>
<path d="M1.67949 14.6751C1.66568 14.5861 1.612 14.5362 1.52662 14.5175C1.51077 14.5388 1.49287 14.558 1.46986 14.5736C1.51281 14.634 1.56598 14.6834 1.62376 14.7292C1.63859 14.7063 1.65801 14.6891 1.67949 14.6751Z" fill="#797575"/>
</svg>
