<svg width="22" height="24" viewBox="0 0 22 24" fill="none" xmlns="http://www.w3.org/2000/svg">
<path d="M21.4785 10.7374C19.2443 8.4645 17.011 6.1906 14.7783 3.91618C14.334 3.46359 13.8595 3.45266 13.4178 3.9011C11.6907 5.65633 9.96715 7.41573 8.23955 9.17096C7.1081 10.3207 5.97204 11.4651 4.83803 12.6122C4.76594 12.7277 4.67238 12.8209 4.53587 12.9207C4.58444 12.7376 4.6826 12.6226 4.78435 12.5092C6.06458 10.5568 7.34431 8.60444 8.62557 6.65256C9.59955 5.1694 10.5807 3.69093 11.5485 2.20361C11.8538 1.73437 11.7403 1.2516 11.2868 0.941544C10.9902 0.739177 10.6937 0.53629 10.3941 0.337565C9.97329 0.0587246 9.49422 0.144041 9.20024 0.554498C9.05504 0.757385 8.9262 0.972237 8.78866 1.18085C6.01704 5.38946 3.24541 9.59806 0.47429 13.8067C0.0882765 14.3924 0.180306 14.8424 0.760093 15.2347C1.13486 15.4886 1.53928 15.7086 1.87416 16.0088C2.38442 16.4655 2.84457 16.98 3.32823 17.4675C5.24552 19.3996 7.16434 21.3307 9.04686 23.2971C9.68646 23.9651 10.7187 24.0405 11.456 23.282C14.7793 19.8657 18.1281 16.4749 21.4688 13.0763C22.1729 12.362 22.178 11.4485 21.4785 10.7374ZM14.0185 4.26421C14.1075 4.22572 14.1831 4.26057 14.2486 4.32664C14.5068 4.58831 14.7665 4.84842 15.0227 5.11166C15.1218 5.21362 15.1295 5.32599 15.0273 5.43107C14.6525 5.81604 14.2757 6.1984 13.8846 6.59742C13.8846 5.8561 13.8846 5.16056 13.8846 4.46502C13.8846 4.36618 13.9347 4.30063 14.0185 4.26421ZM11.7034 6.70874C11.704 6.65204 11.7219 6.58129 11.7576 6.54175C11.9974 6.27696 12.2439 6.01893 12.4888 5.75882C12.5113 5.77026 12.5333 5.78171 12.5557 5.79315C12.5557 5.96014 12.5583 6.12661 12.5552 6.29361C12.5465 6.78626 12.5373 7.27891 12.5256 7.77156C12.5235 7.84803 12.5332 7.94948 12.4913 7.99578C12.2362 8.27462 11.9673 8.54045 11.7019 8.81201C11.7009 8.09046 11.6994 7.3996 11.7034 6.70874ZM9.53001 8.87496C9.53001 8.83542 9.54638 8.78652 9.57245 8.75842C9.8194 8.48947 10.0699 8.22416 10.3562 7.91774C10.3562 8.45514 10.3184 8.91241 10.3654 9.3598C10.4304 9.97835 10.2412 10.4481 9.74986 10.8076C9.67164 10.8648 9.62665 10.9694 9.56631 11.0521C9.55353 11.0339 9.54126 11.0157 9.52848 10.9969C9.52848 10.29 9.52797 9.58246 9.53001 8.87496ZM7.85303 10.5007C7.96346 10.4169 8.04016 10.2863 8.15724 10.1479C8.15724 10.9304 8.15826 11.629 8.15519 12.3277C8.15519 12.3755 8.13934 12.4364 8.10867 12.4697C7.86121 12.7376 7.60813 13.0008 7.32744 13.2963C7.32744 12.7361 7.36016 12.2382 7.31874 11.7466C7.27375 11.2139 7.43787 10.8154 7.85303 10.5007ZM5.15349 13.3572C5.15349 13.3093 5.17087 13.249 5.20206 13.2152C5.45054 12.9493 5.70413 12.6882 5.98994 12.3906C5.98994 12.9509 5.96386 13.4488 5.9971 13.9425C6.03084 14.4471 5.8928 14.8435 5.48786 15.1483C5.36976 15.2373 5.28898 15.3783 5.15093 15.5427C5.15144 14.7509 5.15042 14.0543 5.15349 13.3572ZM9.75498 0.926978C9.83269 0.813049 9.94722 0.83802 10.049 0.907209C10.3455 1.10802 10.6461 1.30362 10.9355 1.51483C11.1175 1.64749 11.0909 1.88055 10.8813 1.93101C10.2075 2.09332 9.52848 2.23274 8.77639 2.39765C9.12968 1.86442 9.43798 1.39258 9.75498 0.926978ZM7.72572 4.00878C7.74719 3.97705 7.79525 3.95572 7.83462 3.94688C8.51104 3.79705 9.18797 3.65035 9.91603 3.49168C9.68902 3.83659 9.49167 4.13624 9.29534 4.43641C9.26057 4.48947 9.21865 4.52432 9.15525 4.53785C8.48599 4.68299 7.81673 4.83022 7.06975 4.99357C7.31414 4.62473 7.51763 4.31519 7.72572 4.00878ZM5.96795 6.66453C6.00732 6.60366 6.05436 6.55632 6.1244 6.54123C6.79469 6.39505 7.46497 6.24991 8.20274 6.08968C7.96755 6.44811 7.76918 6.75348 7.5662 7.05677C7.54422 7.08955 7.50127 7.11868 7.46344 7.12752C6.78548 7.27891 6.10651 7.42717 5.36056 7.59052C5.59216 7.23781 5.78134 6.95221 5.96795 6.66453ZM4.28074 9.22975C4.30682 9.19073 4.35692 9.15431 4.40191 9.14443C5.07833 8.99305 5.75628 8.84634 6.49917 8.68455C6.25887 9.04559 6.05538 9.35148 5.85189 9.65685C5.8161 9.71043 5.76191 9.72968 5.70158 9.74269C5.06248 9.88003 4.4239 10.0189 3.7848 10.1563C3.76231 10.1609 3.73725 10.1516 3.68306 10.1448C3.88808 9.82905 4.08134 9.52732 4.28074 9.22975ZM3.87274 14.6812C3.81855 15.2149 3.76333 15.7481 3.71476 16.2824C3.70351 16.4042 3.67386 16.5046 3.55319 16.5503C3.43202 16.5961 3.34204 16.5389 3.2587 16.4536C2.79242 15.9734 2.32409 15.4953 1.85678 15.0162C1.74583 14.9538 1.66454 14.8617 1.59961 14.7535C1.55615 14.7129 1.51065 14.6739 1.46923 14.6307C1.3951 14.5537 1.33886 14.47 1.38385 14.3529C1.43038 14.2312 1.5265 14.189 1.64358 14.1771C2.17684 14.123 2.70908 14.0616 3.24285 14.0158C3.94637 13.956 3.94586 13.9612 3.87274 14.6812ZM3.94739 12.3428C3.30932 12.4832 2.67176 12.6232 2.01886 12.7667C1.96415 12.6768 2.05362 12.6325 2.07816 12.5753C2.35988 11.9307 2.83792 11.5973 3.54041 11.5437C3.93256 11.5141 4.31704 11.384 4.78384 11.282C4.54814 11.6441 4.35641 11.9365 4.16724 12.2309C4.11355 12.3147 4.02919 12.3251 3.94739 12.3428ZM21.0363 12.5717C17.69 15.9776 14.3432 19.383 10.9984 22.7909C10.7883 23.0053 10.5725 23.1936 10.2969 23.1842C9.97891 23.1936 9.76418 23.0708 9.57501 22.8778C8.31931 21.5965 7.06157 20.3178 5.80434 19.038C5.33499 18.5605 4.87484 18.073 4.3922 17.61C4.21581 17.441 4.23524 17.3473 4.39322 17.1876C6.09628 15.4651 7.79372 13.737 9.49167 12.0098C11.4667 10.0007 13.4418 7.9911 15.4168 5.98199C15.6796 5.7146 15.6275 5.73072 15.8806 5.98823C17.6031 7.73827 19.3235 9.48986 21.0445 11.242C21.4443 11.6483 21.4402 12.1607 21.0363 12.5717Z" fill="#00D1FF"/>
<path d="M4.83799 12.6134C4.8201 12.579 4.8022 12.5447 4.78482 12.5104C4.75159 12.5718 4.725 12.63 4.83799 12.6134Z" fill="#00D1FF"/>
<path d="M1.86442 14.9044C1.8634 14.9055 1.86289 14.9065 1.86186 14.9081C1.84295 14.9434 1.8409 14.9799 1.85675 15.0173C1.87873 14.9944 1.90021 14.972 1.92219 14.9492C1.90276 14.9341 1.88385 14.9195 1.86442 14.9044Z" fill="#00D1FF"/>
<path d="M1.70746 14.7514C1.70899 14.7504 1.71001 14.7494 1.71104 14.7483C1.69621 14.7275 1.68241 14.7057 1.67065 14.6823C1.64713 14.7062 1.6231 14.7296 1.59958 14.7535C1.63588 14.7702 1.67167 14.7702 1.70746 14.7514Z" fill="#00D1FF"/>
<path d="M14.1166 12.606C12.6937 12.9769 11.276 13.3686 9.85872 13.7603C9.54429 13.8472 9.3725 14.1104 9.37046 14.4403C9.36125 14.6432 9.43539 14.8122 9.57394 14.9537C10.6021 16.0004 11.6262 17.0508 12.6626 18.0896C13.0516 18.4798 13.679 18.3139 13.8237 17.7801C14.2122 16.3474 14.5896 14.9111 14.9567 13.4721C15.0952 12.9259 14.6545 12.4655 14.1166 12.606Z" fill="#00D1FF"/>
<path d="M3.27144 15.6384C3.10579 15.6254 3.00098 15.7216 2.99177 15.899C2.98257 16.0754 3.14874 16.2486 3.34609 16.2512C3.49794 16.2455 3.59764 16.142 3.59048 15.9765C3.58281 15.7851 3.46317 15.6535 3.27144 15.6384Z" fill="#00D1FF"/>
<path d="M1.82147 14.6146C1.88691 14.5262 1.97485 14.4903 2.05665 14.585C2.12926 14.6693 2.0858 14.7489 2.00297 14.8004C1.97587 14.8175 1.94673 14.8316 1.92065 14.8498C1.92526 14.8789 1.92679 14.9106 1.9227 14.9486C2.11545 14.9673 2.26679 14.9112 2.27599 14.6885C2.28417 14.4872 2.163 14.3582 1.97536 14.3415C1.75193 14.3218 1.66246 14.4669 1.67115 14.6828C1.70745 14.6823 1.73915 14.6859 1.76829 14.6927C1.7867 14.6672 1.80255 14.6401 1.82147 14.6146Z" fill="#00D1FF"/>
<path d="M1.92064 14.8503C1.90683 14.7613 1.85315 14.7114 1.76777 14.6926C1.75192 14.714 1.73402 14.7332 1.71101 14.7488C1.75396 14.8092 1.80713 14.8586 1.86491 14.9044C1.87974 14.8815 1.89916 14.8643 1.92064 14.8503Z" fill="#00D1FF"/>
</svg>
