<svg width="27" height="17" viewBox="0 0 27 17" fill="none" xmlns="http://www.w3.org/2000/svg">
<path d="M4.27404 10.7995C3.31827 10.7995 2.3625 10.8013 1.40673 10.799C0.925083 10.7978 0.58964 10.5906 0.486479 10.2325C0.46735 10.1651 0.466667 10.0932 0.466667 10.023C0.466667 8.63368 0.466667 7.24382 0.466667 5.85454C0.466667 5.37831 0.812358 5.0831 1.38213 5.0711C1.42722 5.06996 1.47231 5.0711 1.51672 5.0711C3.3941 5.0711 5.27217 5.06996 7.14956 5.07339C7.28688 5.07339 7.32924 5.04769 7.32855 4.92778C7.3224 3.9325 7.3265 2.93721 7.32445 1.94193C7.32377 1.7021 7.39004 1.48854 7.61071 1.32123C7.9687 1.05057 8.46059 1.07341 8.83224 1.38233C9.50107 1.93907 10.1679 2.49753 10.836 3.05484C12.5569 4.49209 14.2786 5.92877 15.9988 7.36716C16.4429 7.73833 16.4449 8.12947 16.0043 8.49721C13.6125 10.4963 11.2172 12.4926 8.82814 14.4935C8.28638 14.9474 7.53009 14.7025 7.36135 14.2125C7.32719 14.1132 7.32582 14.0092 7.32582 13.9059C7.32582 12.9203 7.3224 11.9342 7.32992 10.9486C7.3306 10.8207 7.28688 10.795 7.14204 10.7961C6.18559 10.8024 5.22982 10.7995 4.27404 10.7995Z" fill="#fbfbfb"/>
<path d="M26.5291 8.51277C26.5291 10.0614 26.5137 11.6107 26.5331 13.1593C26.5542 14.8827 25.1508 16.3209 23.3983 16.8136C22.9089 16.9512 22.4017 17.0013 21.8848 17C20.2514 16.9966 18.6179 16.9993 16.9845 16.9986C16.5737 16.9986 16.3914 16.8522 16.359 16.5134C16.3331 16.2463 16.325 15.9807 16.3695 15.7143C16.4133 15.4527 16.5551 15.3287 16.8678 15.3043C16.9343 15.2989 17.0007 15.3009 17.068 15.3009C18.6682 15.3009 20.2676 15.3002 21.8678 15.3009C22.9778 15.3016 23.771 14.8712 24.2693 14.0552C24.4152 13.8167 24.4881 13.5544 24.4881 13.2819C24.4889 11.633 24.4921 9.98344 24.4921 8.33452C24.4921 6.79675 24.5018 5.25899 24.484 3.72189C24.4711 2.67751 23.3967 1.75038 22.1457 1.7192C20.9603 1.68938 19.7725 1.71039 18.5863 1.70362C17.9997 1.70023 17.4131 1.7253 16.8273 1.68735C16.5543 1.66973 16.4109 1.56062 16.3752 1.33222C16.3258 1.0164 16.3136 0.699899 16.3744 0.383399C16.4214 0.136028 16.5875 0.00725899 16.8881 0.00725899C18.7014 0.00725899 20.5155 -0.0171393 22.3272 0.0235245C23.4793 0.0492782 24.4468 0.488447 25.2473 1.18041C26.1304 1.94353 26.5388 2.85711 26.5323 3.91505C26.5226 5.44875 26.5291 6.9811 26.5291 8.51277Z" fill="#fbfbfb"/>
</svg>
