<svg width="27" height="17" viewBox="0 0 27 17" fill="none" xmlns="http://www.w3.org/2000/svg">
<path d="M3.80738 10.7995C2.8516 10.7995 1.89583 10.8013 0.940059 10.799C0.458416 10.7978 0.122973 10.5906 0.0198123 10.2325C0.000683182 10.1651 0 10.0932 0 10.023C0 8.63368 0 7.24382 0 5.85454C0 5.37831 0.34569 5.0831 0.915465 5.0711C0.960555 5.06996 1.00564 5.0711 1.05005 5.0711C2.92744 5.0711 4.80551 5.06996 6.68289 5.07339C6.82021 5.07339 6.86257 5.04769 6.86189 4.92778C6.85574 3.9325 6.85984 2.93721 6.85779 1.94193C6.8571 1.7021 6.92337 1.48854 7.14404 1.32123C7.50203 1.05057 7.99392 1.07341 8.36557 1.38233C9.03441 1.93907 9.70119 2.49753 10.3693 3.05484C12.0903 4.49209 13.8119 5.92877 15.5322 7.36716C15.9762 7.73833 15.9783 8.12947 15.5376 8.49721C13.1458 10.4963 10.7506 12.4926 8.36147 14.4935C7.81971 14.9474 7.06343 14.7025 6.89468 14.2125C6.86052 14.1132 6.85915 14.0092 6.85915 13.9059C6.85915 12.9203 6.85574 11.9342 6.86325 10.9486C6.86394 10.8207 6.82021 10.795 6.67538 10.7961C5.71892 10.8024 4.76315 10.7995 3.80738 10.7995Z" fill="#00D1FF"/>
<path d="M26.0624 8.51277C26.0624 10.0614 26.047 11.6107 26.0664 13.1593C26.0875 14.8827 24.6842 16.3209 22.9316 16.8136C22.4423 16.9512 21.9351 17.0013 21.4181 17C19.7847 16.9966 18.1513 16.9993 16.5178 16.9986C16.107 16.9986 15.9247 16.8522 15.8923 16.5134C15.8664 16.2463 15.8583 15.9807 15.9029 15.7143C15.9466 15.4527 16.0884 15.3287 16.4012 15.3043C16.4676 15.2989 16.534 15.3009 16.6013 15.3009C18.2015 15.3009 19.8009 15.3002 21.4011 15.3009C22.5111 15.3016 23.3043 14.8712 23.8026 14.0552C23.9485 13.8167 24.0214 13.5544 24.0214 13.2819C24.0222 11.633 24.0255 9.98344 24.0255 8.33452C24.0255 6.79675 24.0352 5.25899 24.0174 3.72189C24.0044 2.67751 22.93 1.75038 21.679 1.7192C20.4936 1.68938 19.3058 1.71039 18.1197 1.70362C17.5331 1.70023 16.9464 1.7253 16.3606 1.68735C16.0876 1.66973 15.9442 1.56062 15.9085 1.33222C15.8591 1.0164 15.847 0.699899 15.9077 0.383399C15.9547 0.136028 16.1208 0.00725899 16.4214 0.00725899C18.2347 0.00725899 20.0488 -0.0171393 21.8605 0.0235245C23.0127 0.0492782 23.9801 0.488447 24.7806 1.18041C25.6637 1.94353 26.0721 2.85711 26.0656 3.91505C26.0559 5.44875 26.0624 6.9811 26.0624 8.51277Z" fill="#00D1FF"/>
</svg>
