<svg width="117" height="37" viewBox="0 0 117 37" fill="none" xmlns="http://www.w3.org/2000/svg">
<path d="M5.16113 10.2198C5.14947 18.8128 5.13888 27.4048 5.12722 35.9979C3.41497 36.3157 1.70695 36.6516 0 37.0002C0.00105956 24.8057 0.00105956 12.6123 0.00105956 0.418838C2.40521 0.41354 4.80829 0.408242 7.21244 0.402944C9.12071 7.24454 11.0703 14.0745 13.0623 20.8917C13.0803 14.0586 13.0994 7.22547 13.1174 0.391289C14.8243 0.38811 16.5313 0.384932 18.2382 0.382812C18.2022 11.5485 18.1662 22.7141 18.1291 33.8809C16.1647 34.1595 14.2034 34.4541 12.2432 34.7645C9.82002 26.6006 7.46038 18.4187 5.16113 10.2198Z" fill="#00D1FF"/>
<path d="M30.0006 13.8995C32.6336 13.7914 35.2666 13.6961 37.8996 13.6134C37.8954 15.1106 37.8912 16.6088 37.8869 18.106C35.2518 18.2151 32.6177 18.3423 29.9847 18.4864C29.9741 21.6205 29.9624 24.7558 29.9519 27.89C33.2662 27.6166 36.5826 27.3856 39.9033 27.1981C39.899 28.6889 39.8948 30.1797 39.8916 31.6716C34.6425 32.0191 29.4083 32.4948 24.1836 33.1009C24.2217 22.1927 24.2609 11.2845 24.2991 0.375268C29.5248 0.368911 34.7506 0.362554 39.9774 0.359375C39.9732 1.85018 39.969 3.34204 39.9658 4.83285C36.6546 4.86675 33.3435 4.90702 30.0324 4.95576C30.0218 7.9363 30.0112 10.9179 30.0006 13.8995Z" fill="#00D1FF"/>
<path d="M43.7918 0.354824C49.7148 0.351645 55.6378 0.350586 61.5607 0.350586C61.5618 1.8149 61.5618 3.27922 61.5628 4.74247C59.5581 4.74035 57.5534 4.73929 55.5487 4.74247C55.5445 13.5262 55.5403 22.31 55.536 31.0938C53.6098 31.1171 51.6845 31.1552 49.7582 31.2082C49.771 22.3927 49.7826 13.576 49.7953 4.76048C47.7906 4.77002 45.7859 4.78273 43.7812 4.79757C43.7855 3.31736 43.7887 1.83609 43.7918 0.354824Z" fill="#00D1FF"/>
<path d="M74.6599 14.1642C77.347 14.2342 80.033 14.3189 82.72 14.4175C82.7306 17.772 82.7423 21.1277 82.7529 24.4822C82.7921 29.6699 79.0783 32.1323 74.1789 31.8621C69.3568 31.5961 65.5466 28.908 65.5594 23.7713C65.553 18.43 65.5466 13.0888 65.5403 7.74752C65.5149 2.65102 69.2774 0.00105986 74.1016 2.9808e-07C79.0571 -0.00105926 82.6999 2.82267 82.6978 7.97956C82.701 9.00734 82.7041 10.0351 82.7073 11.0629C80.8933 11.012 79.0804 10.9654 77.2665 10.923C77.2633 9.80413 77.2601 8.68523 77.2569 7.56527C77.3131 5.75448 76.0522 4.43533 74.2679 4.45122C72.5408 4.46711 71.1591 5.64959 71.2937 7.48687C71.3054 13.0686 71.316 18.6515 71.3276 24.2332C71.2015 26.0885 72.6097 27.2604 74.323 27.3748C76.084 27.4914 77.3788 26.31 77.3036 24.4865C77.2983 22.5613 77.293 20.6371 77.2877 18.7119C76.2408 18.6716 75.7163 18.6525 74.6684 18.6186C74.6674 17.1331 74.6631 15.6487 74.6599 14.1642Z" fill="#00D1FF"/>
<path d="M88.3177 0.369141C90.2334 0.37126 92.1502 0.373379 94.0659 0.376558C94.104 11.3451 94.1422 22.3148 94.1803 33.2834C92.2646 33.0503 90.3489 32.8331 88.4301 32.6296C88.393 21.8761 88.3559 11.1226 88.3177 0.369141Z" fill="#00D1FF"/>
<path d="M108.831 15.9359C111.505 16.1489 114.177 16.3767 116.849 16.6183C116.849 20.4857 116.849 24.3531 116.849 28.2194C116.871 33.5575 113.73 36.715 108.349 35.79C103.248 34.9127 99.8256 31.201 99.7885 25.9594C99.7705 20.1265 99.7515 14.2936 99.7334 8.46069C99.6974 3.25824 103.101 -0.0189893 108.278 8.27956e-05C113.768 0.0191549 116.921 3.83146 116.849 9.19708C116.849 10.3817 116.849 11.5663 116.849 12.7509C115.043 12.6258 113.237 12.505 111.43 12.3885C111.428 11.1191 111.427 9.84977 111.425 8.58042C111.466 6.64884 110.482 5.05207 108.444 5.00122C106.452 4.95142 105.423 6.42633 105.476 8.33354C105.491 14.5479 105.507 20.7611 105.522 26.9755C105.486 28.9346 106.534 30.4561 108.494 30.7645C110.501 31.0802 111.509 29.6911 111.45 27.7744C111.447 25.5906 111.444 23.4079 111.442 21.2242C110.401 21.1108 109.881 21.0557 108.839 20.9476C108.837 19.2778 108.834 17.6068 108.831 15.9359Z" fill="#00D1FF"/>
</svg>
