<svg width="21" height="21" viewBox="0 0 21 21" fill="none" xmlns="http://www.w3.org/2000/svg">
<path d="M10.5252 2.57257e-06C16.2996 -0.00402268 21.0055 4.71616 21 10.5062C20.9945 16.3006 16.2933 20.9954 10.4926 21C4.71126 21.0044 -0.00636101 16.2796 -3.24249e-05 10.491C0.00629616 4.6923 4.70982 0.00402783 10.5252 2.57257e-06ZM4.39109 17.7525C5.75719 15.4127 7.75729 14.0734 10.5001 14.0732C13.2441 14.0729 15.2456 15.4093 16.6086 17.7542C19.2717 15.5674 20.7704 11.6807 19.5928 7.76386C18.3869 3.75413 14.7535 1.04398 10.57 1.00229C6.44153 0.961176 2.72554 3.64947 1.46042 7.59595C0.216 11.4766 1.62064 15.4849 4.39109 17.7525Z" fill="#797575"/>
<path d="M10.4774 5.36916C12.68 5.36255 14.4767 7.13768 14.4822 9.3257C14.4876 11.5399 12.7099 13.3308 10.5004 13.3374C8.3205 13.3441 6.52377 11.5543 6.51745 9.36998C6.51083 7.16845 8.2854 5.37577 10.4774 5.36916Z" fill="#797575"/>
</svg>
