<svg width="21" height="21" viewBox="0 0 21 21" fill="none" xmlns="http://www.w3.org/2000/svg">
<path d="M20.1221 9.22961C19.6137 8.71373 19.0983 8.20485 18.5863 7.69272C18.4944 7.60078 18.3924 7.52309 18.2758 7.46513C17.832 7.24479 17.3151 7.32048 16.9583 7.66598C16.8161 7.80364 16.6857 7.95328 16.5413 8.10667C16.4976 8.02947 16.5118 7.97926 16.5118 7.93204C16.5111 5.33891 16.5103 2.74602 16.5136 0.15289C16.5138 0.0394716 16.4968 0 16.3692 0C11.1328 0.00349748 5.89624 0.00349748 0.659659 0.000499641C0.551474 0.00024982 0.52449 0.0234831 0.52449 0.134153C0.527489 6.85632 0.527489 13.5782 0.52499 20.3001C0.52499 20.4043 0.54223 20.4373 0.65691 20.4373C5.89774 20.4338 11.1386 20.4338 16.3792 20.437C16.4918 20.437 16.5141 20.4073 16.5138 20.2999C16.5103 18.4352 16.5123 16.5706 16.5088 14.7059C16.5086 14.592 16.5433 14.5143 16.6223 14.4344C17.7958 13.2475 18.9688 12.0601 20.1356 10.8664C20.5959 10.3955 20.5861 9.70027 20.1221 9.22961ZM14.6567 18.7038C10.5644 18.7013 6.47214 18.7013 2.37962 18.7038C2.27993 18.7038 2.25594 18.6763 2.25594 18.5789C2.25844 13.0049 2.25844 7.43115 2.25594 1.85716C2.25594 1.75724 2.28343 1.7335 2.38087 1.7335C6.47314 1.736 10.5654 1.736 14.6579 1.73325C14.7546 1.73325 14.7731 1.76123 14.7731 1.85217C14.7706 4.49552 14.7711 7.13886 14.7711 9.78221C14.7711 9.83542 14.7741 9.88439 14.7279 9.93011C14.2519 10.4018 13.7785 10.8762 13.3045 11.3498C13.2933 11.3611 13.2828 11.3761 13.251 11.3623C13.251 11.0281 13.2453 10.6886 13.2543 10.3493C13.2573 10.2366 13.2246 10.2162 13.1179 10.2162C10.0997 10.2191 7.08128 10.2194 4.0631 10.2157C3.94642 10.2154 3.92144 10.2484 3.92419 10.3583C3.93168 10.6703 3.93168 10.9828 3.92419 11.2949C3.92169 11.3978 3.95592 11.4158 4.04986 11.4155C5.89 11.413 7.73013 11.4135 9.57002 11.4135C10.7316 11.4135 11.8931 11.4135 13.0547 11.4135C13.1044 11.4135 13.1541 11.4135 13.2118 11.4135C13.2016 11.4742 13.1551 11.4995 13.1224 11.5322C12.2666 12.3896 11.4112 13.2472 10.5524 14.1014C10.3738 14.2792 10.2501 14.4823 10.1794 14.7247C9.97478 15.4267 9.76141 16.1259 9.55603 16.8279C9.3589 17.5014 9.70094 18.139 10.352 18.3213C10.5707 18.3825 10.7883 18.374 11.0047 18.3096C11.7292 18.094 12.4535 17.8771 13.1786 17.663C13.3912 17.6003 13.5726 17.4902 13.7283 17.3333C14.0391 17.02 14.3521 16.709 14.6644 16.3972C14.6927 16.369 14.7224 16.3422 14.7521 16.3143C14.7834 16.3437 14.7709 16.3747 14.7709 16.4012C14.7719 17.1297 14.7699 17.8582 14.7739 18.5866C14.7739 18.6796 14.7511 18.7038 14.6567 18.7038ZM17.7508 11.6599C16.1278 13.2787 14.5063 14.8993 12.8848 16.5196C12.8523 16.5521 12.8196 16.5798 12.7726 16.5938C12.0715 16.8004 11.3709 17.0088 10.6704 17.2164C10.6586 17.2199 10.6461 17.2211 10.6081 17.2279C10.6584 17.056 10.7028 16.9016 10.7486 16.7477C10.9102 16.2023 11.0734 15.6572 11.2335 15.1114C11.253 15.0454 11.2845 14.9925 11.3332 14.9437C12.9492 13.3297 14.5645 11.7146 16.178 10.098C16.2377 10.0383 16.2697 10.03 16.3337 10.095C16.8044 10.5714 17.2781 11.0448 17.7548 11.5155C17.8163 11.5762 17.805 11.6056 17.7508 11.6599ZM19.2017 10.1512C18.9319 10.4163 18.6645 10.6838 18.3989 10.9531C18.3522 11.0003 18.3252 11.0096 18.2725 10.9564C17.7985 10.478 17.3218 10.0023 16.8441 9.52765C16.7977 9.48143 16.7849 9.4532 16.8394 9.39999C17.1097 9.13543 17.3756 8.86637 17.6436 8.59931C17.6634 8.57958 17.6786 8.55235 17.7173 8.54835C17.7326 8.56234 17.7513 8.57833 17.7688 8.59582C18.2453 9.07172 18.721 9.54863 19.1989 10.023C19.2467 10.071 19.2539 10.0997 19.2017 10.1512Z" fill="#fbfbfb"/>
<path d="M4.05361 5.0318C5.56894 5.0283 7.08402 5.0293 8.59935 5.0293C10.1062 5.0293 11.6133 5.0278 13.1201 5.0323C13.2335 5.03255 13.256 5.00107 13.2533 4.8949C13.2458 4.59112 13.2438 4.28709 13.254 3.98355C13.2583 3.85989 13.2213 3.83691 13.1041 3.83716C10.0944 3.84066 7.08477 3.83991 4.07509 3.83991C4.05436 3.83991 4.03312 3.84266 4.01263 3.83941C3.93843 3.82817 3.92443 3.86389 3.92518 3.93084C3.92818 4.25536 3.93168 4.58038 3.92368 4.90464C3.92094 5.01157 3.95217 5.03205 4.05361 5.0318Z" fill="#fbfbfb"/>
<path d="M13.1079 6.9834C11.601 6.9884 10.0942 6.98665 8.58737 6.98665C7.07228 6.98665 5.5572 6.9874 4.04186 6.98465C3.95267 6.9844 3.92144 6.99989 3.92368 7.09807C3.93093 7.41834 3.92968 7.73911 3.92443 8.05937C3.92294 8.14856 3.93968 8.17954 4.03762 8.17754C4.37466 8.17054 4.71196 8.17479 5.049 8.17479C7.74213 8.17479 10.4352 8.17429 13.1284 8.17679C13.2208 8.17679 13.2563 8.1608 13.2535 8.05763C13.2458 7.74985 13.245 7.44157 13.2538 7.1338C13.257 7.01738 13.2321 6.9829 13.1079 6.9834Z" fill="#fbfbfb"/>
</svg>
