<svg width="20" height="21" viewBox="0 0 20 21" fill="none" xmlns="http://www.w3.org/2000/svg">
<path d="M19.5977 9.22961C19.0892 8.71373 18.5738 8.20485 18.0618 7.69272C17.9699 7.60078 17.8679 7.52309 17.7513 7.46513C17.3075 7.24479 16.7906 7.32048 16.4338 7.66598C16.2917 7.80364 16.1612 7.95328 16.0168 8.10667C15.9731 8.02947 15.9873 7.97926 15.9873 7.93204C15.9866 5.33891 15.9858 2.74602 15.9891 0.15289C15.9893 0.0394716 15.9723 0 15.8447 0C10.6083 0.00349748 5.37175 0.00349748 0.135168 0.000499641C0.0269837 0.00024982 0 0.0234831 0 0.134153C0.00299819 6.85632 0.00299819 13.5782 0.000499698 20.3001C0.000499698 20.4043 0.0177393 20.4373 0.13242 20.4373C5.37325 20.4338 10.6141 20.4338 15.8547 20.437C15.9673 20.437 15.9896 20.4073 15.9893 20.2999C15.9858 18.4352 15.9878 16.5706 15.9843 14.7059C15.9841 14.592 16.0188 14.5143 16.0978 14.4344C17.2713 13.2475 18.4443 12.0601 19.6111 10.8664C20.0714 10.3955 20.0616 9.70027 19.5977 9.22961ZM14.1322 18.7038C10.0399 18.7013 5.94765 18.7013 1.85513 18.7038C1.75544 18.7038 1.73145 18.6763 1.73145 18.5789C1.73395 13.0049 1.73395 7.43115 1.73145 1.85716C1.73145 1.75724 1.75894 1.7335 1.85638 1.7335C5.94865 1.736 10.0409 1.736 14.1335 1.73325C14.2301 1.73325 14.2486 1.76123 14.2486 1.85217C14.2461 4.49552 14.2466 7.13886 14.2466 9.78221C14.2466 9.83542 14.2496 9.88439 14.2034 9.93011C13.7275 10.4018 13.254 10.8762 12.78 11.3498C12.7688 11.3611 12.7583 11.3761 12.7266 11.3623C12.7266 11.0281 12.7208 10.6886 12.7298 10.3493C12.7328 10.2366 12.7001 10.2162 12.5934 10.2162C9.57521 10.2191 6.55679 10.2194 3.53861 10.2157C3.42193 10.2154 3.39695 10.2484 3.39969 10.3583C3.40719 10.6703 3.40719 10.9828 3.39969 11.2949C3.3972 11.3978 3.43143 11.4158 3.52537 11.4155C5.36551 11.413 7.20564 11.4135 9.04553 11.4135C10.2071 11.4135 11.3686 11.4135 12.5302 11.4135C12.5799 11.4135 12.6296 11.4135 12.6873 11.4135C12.6771 11.4742 12.6306 11.4995 12.5979 11.5322C11.7422 12.3896 10.8867 13.2472 10.0279 14.1014C9.84929 14.2792 9.72562 14.4823 9.65491 14.7247C9.45029 15.4267 9.23692 16.1259 9.03154 16.8279C8.83441 17.5014 9.17645 18.139 9.82756 18.3213C10.0462 18.3825 10.2638 18.374 10.4802 18.3096C11.2047 18.094 11.929 17.8771 12.6541 17.663C12.8667 17.6003 13.0481 17.4902 13.2038 17.3333C13.5146 17.02 13.8276 16.709 14.14 16.3972C14.1682 16.369 14.1979 16.3422 14.2276 16.3143C14.2589 16.3437 14.2464 16.3747 14.2464 16.4012C14.2474 17.1297 14.2454 17.8582 14.2494 18.5866C14.2494 18.6796 14.2266 18.7038 14.1322 18.7038ZM17.2263 11.6599C15.6033 13.2787 13.9818 14.8993 12.3603 16.5196C12.3278 16.5521 12.2951 16.5798 12.2481 16.5938C11.547 16.8004 10.8464 17.0088 10.1459 17.2164C10.1341 17.2199 10.1216 17.2211 10.0837 17.2279C10.1339 17.056 10.1783 16.9016 10.2241 16.7477C10.3857 16.2023 10.5489 15.6572 10.709 15.1114C10.7285 15.0454 10.76 14.9925 10.8087 14.9437C12.4247 13.3297 14.04 11.7146 15.6535 10.098C15.7133 10.0383 15.7452 10.03 15.8092 10.095C16.2799 10.5714 16.7536 11.0448 17.2303 11.5155C17.2918 11.5762 17.2806 11.6057 17.2263 11.6599ZM18.6772 10.1512C18.4074 10.4163 18.14 10.6838 17.8744 10.9531C17.8277 11.0003 17.8007 11.0096 17.748 10.9564C17.2741 10.478 16.7973 10.0023 16.3196 9.52765C16.2732 9.48143 16.2604 9.4532 16.3149 9.39999C16.5852 9.13543 16.8511 8.86637 17.1191 8.59931C17.1389 8.57958 17.1541 8.55235 17.1929 8.54835C17.2081 8.56234 17.2268 8.57833 17.2443 8.59582C17.7208 9.07172 18.1965 9.54863 18.6745 10.023C18.7222 10.071 18.7294 10.0997 18.6772 10.1512Z" fill="#00D1FF"/>
<path d="M3.52912 5.0318C5.04445 5.0283 6.55953 5.0293 8.07487 5.0293C9.5817 5.0293 11.0888 5.0278 12.5956 5.0323C12.7091 5.03255 12.7315 5.00107 12.7288 4.8949C12.7213 4.59112 12.7193 4.28709 12.7295 3.98355C12.7338 3.85989 12.6968 3.83691 12.5796 3.83716C9.56996 3.84066 6.56028 3.83991 3.55061 3.83991C3.52987 3.83991 3.50863 3.84266 3.48814 3.83941C3.41394 3.82817 3.39995 3.86389 3.4007 3.93084C3.40369 4.25536 3.40719 4.58038 3.3992 4.90464C3.39645 5.01157 3.42768 5.03205 3.52912 5.0318Z" fill="#00D1FF"/>
<path d="M19.5977 9.22961C19.0892 8.71373 18.5738 8.20485 18.0618 7.69272C17.9699 7.60078 17.8679 7.52309 17.7513 7.46513C17.3075 7.24479 16.7906 7.32048 16.4338 7.66598C16.2917 7.80364 16.1612 7.95328 16.0168 8.10667C15.9731 8.02947 15.9873 7.97926 15.9873 7.93204C15.9866 5.33891 15.9858 2.74602 15.9891 0.15289C15.9893 0.0394716 15.9723 0 15.8447 0C10.6083 0.00349748 5.37175 0.00349748 0.135168 0.000499641C0.0269837 0.00024982 0 0.0234831 0 0.134153C0.00299819 6.85632 0.00299819 13.5782 0.000499698 20.3001C0.000499698 20.4043 0.0177393 20.4373 0.13242 20.4373C5.37325 20.4338 10.6141 20.4338 15.8547 20.437C15.9673 20.437 15.9896 20.4073 15.9893 20.2999C15.9858 18.4352 15.9878 16.5706 15.9843 14.7059C15.9841 14.592 16.0188 14.5143 16.0978 14.4344C17.2713 13.2475 18.4443 12.0601 19.6111 10.8664C20.0714 10.3955 20.0616 9.70027 19.5977 9.22961ZM14.1322 18.7038C10.0399 18.7013 5.94765 18.7013 1.85513 18.7038C1.75544 18.7038 1.73145 18.6763 1.73145 18.5789C1.73395 13.0049 1.73395 7.43115 1.73145 1.85716C1.73145 1.75724 1.75894 1.7335 1.85638 1.7335C5.94865 1.736 10.0409 1.736 14.1335 1.73325C14.2301 1.73325 14.2486 1.76123 14.2486 1.85217C14.2461 4.49552 14.2466 7.13886 14.2466 9.78221C14.2466 9.83542 14.2496 9.88439 14.2034 9.93011C13.7275 10.4018 13.254 10.8762 12.78 11.3498C12.7688 11.3611 12.7583 11.3761 12.7266 11.3623C12.7266 11.0281 12.7208 10.6886 12.7298 10.3493C12.7328 10.2366 12.7001 10.2162 12.5934 10.2162C9.57521 10.2191 6.55679 10.2194 3.53861 10.2157C3.42193 10.2154 3.39695 10.2484 3.39969 10.3583C3.40719 10.6703 3.40719 10.9828 3.39969 11.2949C3.3972 11.3978 3.43143 11.4158 3.52537 11.4155C5.36551 11.413 7.20564 11.4135 9.04553 11.4135C10.2071 11.4135 11.3686 11.4135 12.5302 11.4135C12.5799 11.4135 12.6296 11.4135 12.6873 11.4135C12.6771 11.4742 12.6306 11.4995 12.5979 11.5322C11.7422 12.3896 10.8867 13.2472 10.0279 14.1014C9.84929 14.2792 9.72562 14.4823 9.65491 14.7247C9.45029 15.4267 9.23692 16.1259 9.03154 16.8279C8.83441 17.5014 9.17645 18.139 9.82756 18.3213C10.0462 18.3825 10.2638 18.374 10.4802 18.3096C11.2047 18.094 11.929 17.8771 12.6541 17.663C12.8667 17.6003 13.0481 17.4902 13.2038 17.3333C13.5146 17.02 13.8276 16.709 14.14 16.3972C14.1682 16.369 14.1979 16.3422 14.2276 16.3143C14.2589 16.3437 14.2464 16.3747 14.2464 16.4012C14.2474 17.1297 14.2454 17.8582 14.2494 18.5866C14.2494 18.6796 14.2266 18.7038 14.1322 18.7038ZM17.2263 11.6599C15.6033 13.2787 13.9818 14.8993 12.3603 16.5196C12.3278 16.5521 12.2951 16.5798 12.2481 16.5938C11.547 16.8004 10.8464 17.0088 10.1459 17.2164C10.1341 17.2199 10.1216 17.2211 10.0837 17.2279C10.1339 17.056 10.1783 16.9016 10.2241 16.7477C10.3857 16.2023 10.5489 15.6572 10.709 15.1114C10.7285 15.0454 10.76 14.9925 10.8087 14.9437C12.4247 13.3297 14.04 11.7146 15.6535 10.098C15.7133 10.0383 15.7452 10.03 15.8092 10.095C16.2799 10.5714 16.7536 11.0448 17.2303 11.5155C17.2918 11.5762 17.2806 11.6057 17.2263 11.6599ZM18.6772 10.1512C18.4074 10.4163 18.14 10.6838 17.8744 10.9531C17.8277 11.0003 17.8007 11.0096 17.748 10.9564C17.2741 10.478 16.7973 10.0023 16.3196 9.52765C16.2732 9.48143 16.2604 9.4532 16.3149 9.39999C16.5852 9.13543 16.8511 8.86637 17.1191 8.59931C17.1389 8.57958 17.1541 8.55235 17.1929 8.54835C17.2081 8.56234 17.2268 8.57833 17.2443 8.59582C17.7208 9.07172 18.1965 9.54863 18.6745 10.023C18.7222 10.071 18.7294 10.0997 18.6772 10.1512Z" fill="#00D1FF"/>
<path d="M12.5834 6.9834C11.0766 6.9884 9.56972 6.98665 8.06288 6.98665C6.54779 6.98665 5.03271 6.9874 3.51738 6.98465C3.42818 6.9844 3.39695 6.99989 3.3992 7.09807C3.40644 7.41834 3.40519 7.73911 3.39995 8.05937C3.39845 8.14856 3.41519 8.17954 3.51313 8.17754C3.85018 8.17054 4.18747 8.17479 4.52452 8.17479C7.21764 8.17479 9.91076 8.17429 12.6039 8.17679C12.6963 8.17679 12.7318 8.1608 12.7291 8.05763C12.7213 7.74985 12.7206 7.44157 12.7293 7.1338C12.7326 7.01738 12.7076 6.9829 12.5834 6.9834Z" fill="#00D1FF"/>
</svg>
